<svg width="1920" height="1080" viewBox="0 0 1920 1080" xmlns="http://www.w3.org/2000/svg">
  <defs>
    <!-- Deep Space Gradient -->
    <radialGradient id="spaceGrad" cx="50%" cy="50%" r="70%" fx="50%" fy="50%">
      <stop offset="0%" style="stop-color:#1a1a17;stop-opacity:1" />
      <stop offset="100%" style="stop-color:#050505;stop-opacity:1" />
    </radialGradient>
    
    <!-- Nebula Gradients -->
    <radialGradient id="nebulaAmber" cx="50%" cy="50%" r="50%">
      <stop offset="0%" style="stop-color:#f59e0b;stop-opacity:0.15" />
      <stop offset="100%" style="stop-color:#f59e0b;stop-opacity:0" />
    </radialGradient>
    <radialGradient id="nebulaNavy" cx="50%" cy="50%" r="50%">
      <stop offset="0%" style="stop-color:#1e40af;stop-opacity:0.1" />
      <stop offset="100%" style="stop-color:#1e40af;stop-opacity:0" />
    </radialGradient>
    
    <!-- Blur Filter -->
    <filter id="blurFilter" x="-50%" y="-50%" width="200%" height="200%">
      <feGaussianBlur in="SourceGraphic" stdDeviation="60" />
    </filter>
  </defs>

  <!-- Background -->
  <rect width="100%" height="100%" fill="url(#spaceGrad)" />

  <ellipse cx="1649" cy="528" rx="391" ry="416" fill="url(#nebulaAmber)" filter="url(#blurFilter)" transform="rotate(147 1649 528)" />
  <ellipse cx="1784" cy="207" rx="532" ry="474" fill="url(#nebulaAmber)" filter="url(#blurFilter)" transform="rotate(189 1784 207)" />
  <ellipse cx="1642" cy="472" rx="579" ry="496" fill="url(#nebulaAmber)" filter="url(#blurFilter)" transform="rotate(40 1642 472)" />
  <ellipse cx="1319" cy="637" rx="447" ry="220" fill="url(#nebulaAmber)" filter="url(#blurFilter)" transform="rotate(331 1319 637)" />
  <ellipse cx="1818" cy="114" rx="426" ry="400" fill="url(#nebulaAmber)" filter="url(#blurFilter)" transform="rotate(283 1818 114)" />
  <ellipse cx="140" cy="923" rx="642" ry="372" fill="url(#nebulaNavy)" filter="url(#blurFilter)" transform="rotate(32 140 923)" />
  <ellipse cx="1748" cy="94" rx="697" ry="320" fill="url(#nebulaNavy)" filter="url(#blurFilter)" transform="rotate(288 1748 94)" />
  <ellipse cx="1594" cy="292" rx="825" ry="321" fill="url(#nebulaNavy)" filter="url(#blurFilter)" transform="rotate(20 1594 292)" />
  <ellipse cx="269" cy="603" rx="844" ry="582" fill="url(#nebulaNavy)" filter="url(#blurFilter)" transform="rotate(313 269 603)" />
  <ellipse cx="1568" cy="475" rx="543" ry="436" fill="url(#nebulaNavy)" filter="url(#blurFilter)" transform="rotate(1 1568 475)" />
  <ellipse cx="1795" cy="1011" rx="713" ry="403" fill="url(#nebulaNavy)" filter="url(#blurFilter)" transform="rotate(119 1795 1011)" />
  <ellipse cx="680" cy="893" rx="478" ry="354" fill="url(#nebulaNavy)" filter="url(#blurFilter)" transform="rotate(331 680 893)" />
  <ellipse cx="1571" cy="356" rx="785" ry="575" fill="url(#nebulaNavy)" filter="url(#blurFilter)" transform="rotate(201 1571 356)" />
  <circle cx="942" cy="320" r="1.5994949118421267" fill="#f59e0b" opacity="0.63393171726957" />
  <circle cx="941" cy="878" r="0.7378516482994375" fill="#ffffff" opacity="0.4601320782583064" />
  <circle cx="841" cy="118" r="1.0026390112366879" fill="#f59e0b" opacity="0.7462204440356764" />
  <circle cx="902" cy="425" r="1.0142641618272086" fill="#fbbf24" opacity="0.4480733952204843" />
  <circle cx="527" cy="666" r="1.309095198608704" fill="#fbbf24" opacity="0.8623890757372643" />
  <circle cx="714" cy="676" r="1.1959537924855694" fill="#ffffff" opacity="0.8816237991709541" />
  <circle cx="958" cy="482" r="1.3106788227859565" fill="#f59e0b" opacity="0.3143528907602761" />
  <circle cx="104" cy="349" r="0.5884095851799672" fill="#f59e0b" opacity="0.5019442749958465" />
  <circle cx="1634" cy="287" r="0.7153670916505348" fill="#ffffff" opacity="0.4624144876453857" />
  <circle cx="380" cy="473" r="0.7876555953973872" fill="#fbbf24" opacity="0.3870170787688837" />
  <circle cx="1546" cy="126" r="1.3076605728742963" fill="#fbbf24" opacity="0.7034186400649831" />
  <circle cx="284" cy="428" r="0.5882602586204397" fill="#f59e0b" opacity="0.5776464826299228" />
  <circle cx="450" cy="418" r="1.3469364544744962" fill="#fbbf24" opacity="0.6217766549723416" />
  <circle cx="14" cy="635" r="1.165052595090033" fill="#f59e0b" opacity="0.7832913798355411" />
  <circle cx="448" cy="470" r="0.6512228190554524" fill="#ffffff" opacity="0.3968915687215226" />
  <circle cx="999" cy="566" r="1.0974627394733671" fill="#ffffff" opacity="0.4860393634136053" />
  <circle cx="786" cy="181" r="0.6248730770752157" fill="#f59e0b" opacity="0.6952655577490077" />
  <circle cx="267" cy="918" r="1.2399851940760709" fill="#fbbf24" opacity="0.4197828234351516" />
  <circle cx="1289" cy="1047" r="1.4209618018976249" fill="#f59e0b" opacity="0.7074005803392903" />
  <circle cx="600" cy="217" r="1.6704508659965192" fill="#f59e0b" opacity="0.8893499125316227" />
  <circle cx="711" cy="175" r="1.073743066066862" fill="#fbbf24" opacity="0.8034834549446599" />
  <circle cx="165" cy="185" r="1.1432151740830812" fill="#f59e0b" opacity="0.3955806159164046" />
  <circle cx="504" cy="256" r="1.429299402422596" fill="#f59e0b" opacity="0.5928026287870193" />
  <circle cx="1152" cy="49" r="1.0037820324185491" fill="#ffffff" opacity="0.37975263576170726" />
  <circle cx="455" cy="551" r="0.7246218411666988" fill="#ffffff" opacity="0.48035276126232185" />
  <circle cx="1855" cy="329" r="1.193102437218446" fill="#f59e0b" opacity="0.5926693850586311" />
  <circle cx="1177" cy="1031" r="0.6685394419549289" fill="#f59e0b" opacity="0.7769657898866726" />
  <circle cx="1675" cy="732" r="0.8780753932742849" fill="#ffffff" opacity="0.4349704354233878" />
  <circle cx="639" cy="1021" r="0.6223635144782363" fill="#f59e0b" opacity="0.48809347141967463" />
  <circle cx="1168" cy="835" r="0.9380020969563819" fill="#f59e0b" opacity="0.415005431268436" />
  <circle cx="1835" cy="208" r="0.906449833082166" fill="#f59e0b" opacity="0.6657387566510439" />
  <circle cx="1813" cy="672" r="1.3619746802462651" fill="#ffffff" opacity="0.3310099721530413" />
  <circle cx="197" cy="454" r="0.6794813474729297" fill="#f59e0b" opacity="0.3712159367553153" />
  <circle cx="580" cy="2" r="1.5135489040040844" fill="#fbbf24" opacity="0.5191222146176904" />
  <circle cx="1695" cy="420" r="0.6913816671339966" fill="#fbbf24" opacity="0.3705631778162441" />
  <circle cx="1786" cy="634" r="1.749202773523551" fill="#fbbf24" opacity="0.4487272900752648" />
  <circle cx="1353" cy="664" r="0.891031728517348" fill="#f59e0b" opacity="0.7467538071620734" />
  <circle cx="59" cy="299" r="1.3246499020228717" fill="#f59e0b" opacity="0.6559567643301508" />
  <circle cx="1040" cy="438" r="1.403048649947603" fill="#fbbf24" opacity="0.5628558223948743" />
  <circle cx="1585" cy="683" r="0.9438998806389443" fill="#fbbf24" opacity="0.4147337878281792" />
  <circle cx="1883" cy="638" r="0.8942626362245056" fill="#fbbf24" opacity="0.5245386117071682" />
  <circle cx="1502" cy="150" r="1.1662823111351734" fill="#fbbf24" opacity="0.536768966952383" />
  <circle cx="1051" cy="389" r="1.2769597225079075" fill="#ffffff" opacity="0.8138662904912974" />
  <circle cx="1525" cy="339" r="0.7731097557749556" fill="#ffffff" opacity="0.7728178381913379" />
  <circle cx="1859" cy="59" r="0.7219048540775717" fill="#ffffff" opacity="0.7237941835921406" />
  <circle cx="222" cy="174" r="0.8636440959080268" fill="#f59e0b" opacity="0.4632303750484339" />
  <circle cx="561" cy="1006" r="1.1109654340870767" fill="#f59e0b" opacity="0.8012866811088446" />
  <circle cx="1432" cy="776" r="1.7628478914636392" fill="#ffffff" opacity="0.8671591274832695" />
  <circle cx="304" cy="999" r="1.6814668188116797" fill="#fbbf24" opacity="0.6925800660530597" />
  <circle cx="493" cy="65" r="0.9222351095045811" fill="#ffffff" opacity="0.4099201209057919" />
  <circle cx="358" cy="113" r="0.9091679831406296" fill="#fbbf24" opacity="0.6927448993362322" />
  <circle cx="1324" cy="9" r="0.9170279717646467" fill="#ffffff" opacity="0.6580781755668923" />
  <circle cx="842" cy="19" r="1.486811620580782" fill="#fbbf24" opacity="0.6499343246213675" />
  <circle cx="829" cy="764" r="1.4047371913171802" fill="#fbbf24" opacity="0.6230456352313039" />
  <circle cx="1244" cy="785" r="1.1230610831138916" fill="#fbbf24" opacity="0.8725763411838741" />
  <circle cx="322" cy="185" r="1.0327639176159809" fill="#fbbf24" opacity="0.6460778254094732" />
  <circle cx="418" cy="201" r="0.6074134704333687" fill="#fbbf24" opacity="0.503225586756531" />
  <circle cx="1647" cy="669" r="1.7832890868724558" fill="#f59e0b" opacity="0.5943372550040071" />
  <circle cx="1618" cy="52" r="0.6626004981692546" fill="#fbbf24" opacity="0.8712507708832857" />
  <circle cx="902" cy="567" r="1.2635720605838698" fill="#f59e0b" opacity="0.6369175768439219" />
  <circle cx="80" cy="523" r="0.9056212289697093" fill="#fbbf24" opacity="0.8563754376554353" />
  <circle cx="574" cy="659" r="1.6387684410356722" fill="#f59e0b" opacity="0.31889582758303653" />
  <circle cx="1004" cy="356" r="1.1809540618211365" fill="#fbbf24" opacity="0.41176448750029443" />
  <circle cx="1404" cy="925" r="0.7288175100813463" fill="#f59e0b" opacity="0.35138109334360357" />
  <circle cx="477" cy="117" r="1.7035255224380725" fill="#f59e0b" opacity="0.3236633791514082" />
  <circle cx="903" cy="989" r="1.4048218313004162" fill="#f59e0b" opacity="0.6776083509086277" />
  <circle cx="730" cy="159" r="1.5877883431412596" fill="#ffffff" opacity="0.635633345897133" />
  <circle cx="1324" cy="248" r="0.5909441987986113" fill="#f59e0b" opacity="0.5218583278323037" />
  <circle cx="442" cy="846" r="1.7215647674023955" fill="#fbbf24" opacity="0.44773792456442085" />
  <circle cx="739" cy="774" r="0.6268496549086247" fill="#ffffff" opacity="0.5676930784145244" />
  <circle cx="952" cy="442" r="1.4825317801148912" fill="#ffffff" opacity="0.4058720030114489" />
  <circle cx="1461" cy="968" r="1.7504925589916789" fill="#ffffff" opacity="0.7139804752146228" />
  <circle cx="1065" cy="547" r="1.5520554584978623" fill="#ffffff" opacity="0.5494116657773613" />
  <circle cx="598" cy="755" r="1.428927713926234" fill="#fbbf24" opacity="0.36418284817305785" />
  <circle cx="31" cy="91" r="1.3129114786018197" fill="#fbbf24" opacity="0.584255599516326" />
  <circle cx="257" cy="60" r="1.1918953531661933" fill="#fbbf24" opacity="0.44743092220328107" />
  <circle cx="1665" cy="132" r="1.297699959451859" fill="#ffffff" opacity="0.6022478139400582" />
  <circle cx="70" cy="122" r="1.151118099542104" fill="#fbbf24" opacity="0.7728271273227185" />
  <circle cx="1108" cy="186" r="1.107744615300232" fill="#ffffff" opacity="0.7403831581638312" />
  <circle cx="86" cy="559" r="1.7609711582514158" fill="#fbbf24" opacity="0.7730418444428603" />
  <circle cx="665" cy="633" r="0.9774025901418016" fill="#ffffff" opacity="0.5410330808473687" />
  <circle cx="1523" cy="366" r="0.7746482855290023" fill="#f59e0b" opacity="0.8420045839936567" />
  <circle cx="804" cy="671" r="1.6377763157231913" fill="#f59e0b" opacity="0.7175909104440383" />
  <circle cx="423" cy="354" r="0.5855611290105367" fill="#f59e0b" opacity="0.6457304900241168" />
  <circle cx="125" cy="53" r="1.229583436413059" fill="#ffffff" opacity="0.723360116953345" />
  <circle cx="788" cy="194" r="1.0317845158546985" fill="#ffffff" opacity="0.6501070348147007" />
  <circle cx="1422" cy="437" r="1.2324918231142759" fill="#fbbf24" opacity="0.6817691614537871" />
  <circle cx="1002" cy="966" r="1.2258428502640535" fill="#ffffff" opacity="0.46693321142016014" />
  <circle cx="520" cy="690" r="0.5746642431235965" fill="#ffffff" opacity="0.732127765419853" />
  <circle cx="1505" cy="89" r="1.2782226489702844" fill="#f59e0b" opacity="0.667170639201753" />
  <circle cx="1825" cy="690" r="0.9728844106515331" fill="#fbbf24" opacity="0.8289280815514499" />
  <circle cx="906" cy="500" r="1.7576558688985098" fill="#fbbf24" opacity="0.8621305991809158" />
  <circle cx="543" cy="170" r="0.7537467515946101" fill="#f59e0b" opacity="0.5774020889183831" />
  <circle cx="1685" cy="794" r="1.6738453033309046" fill="#f59e0b" opacity="0.4955202155747625" />
  <circle cx="478" cy="273" r="1.7619832570700273" fill="#f59e0b" opacity="0.5572572644050047" />
  <circle cx="1142" cy="454" r="1.401665885969979" fill="#ffffff" opacity="0.8657327703885251" />
  <circle cx="617" cy="744" r="1.1371080095773216" fill="#f59e0b" opacity="0.32323715319258983" />
  <circle cx="219" cy="776" r="1.1437059811571593" fill="#ffffff" opacity="0.5400250590694355" />
  <circle cx="85" cy="145" r="1.7792397027882416" fill="#fbbf24" opacity="0.3001722810075096" />
  <circle cx="700" cy="1032" r="1.0792415589384854" fill="#fbbf24" opacity="0.37085879849032005" />
  <circle cx="1318" cy="447" r="1.1470017274803095" fill="#ffffff" opacity="0.7073643749417764" />
  <circle cx="1562" cy="700" r="1.6547194237407479" fill="#ffffff" opacity="0.43761627171951045" />
  <circle cx="859" cy="897" r="1.0458956396308985" fill="#ffffff" opacity="0.7774413239064918" />
  <circle cx="1643" cy="456" r="0.8454392546187703" fill="#fbbf24" opacity="0.8670066962274963" />
  <circle cx="1688" cy="849" r="1.4026779694403857" fill="#fbbf24" opacity="0.6555128242621181" />
  <circle cx="927" cy="148" r="1.7596169650090516" fill="#f59e0b" opacity="0.3693334185270548" />
  <circle cx="79" cy="639" r="0.5350871842952868" fill="#fbbf24" opacity="0.7392786606447401" />
  <circle cx="583" cy="703" r="1.5304645431834272" fill="#fbbf24" opacity="0.7084419431133362" />
  <circle cx="1438" cy="851" r="0.6377736067870929" fill="#fbbf24" opacity="0.715032212191912" />
  <circle cx="1587" cy="524" r="1.1071360522784823" fill="#f59e0b" opacity="0.6449405373286969" />
  <circle cx="707" cy="542" r="1.0089876684857788" fill="#fbbf24" opacity="0.6467945222847009" />
  <circle cx="1135" cy="41" r="1.4255226494877753" fill="#fbbf24" opacity="0.4082103561620445" />
  <circle cx="1164" cy="321" r="1.4955091176078472" fill="#f59e0b" opacity="0.763226502655216" />
  <circle cx="574" cy="415" r="0.959874341636123" fill="#f59e0b" opacity="0.35525772219689866" />
  <circle cx="1164" cy="1065" r="0.7558884666459489" fill="#ffffff" opacity="0.5304040790347448" />
  <circle cx="743" cy="944" r="1.2983448650848182" fill="#fbbf24" opacity="0.4913620080871425" />
  <circle cx="1500" cy="937" r="1.5520126843721167" fill="#f59e0b" opacity="0.41618909279768307" />
  <circle cx="1239" cy="321" r="1.4704904245363206" fill="#ffffff" opacity="0.8745613331338262" />
  <circle cx="1628" cy="788" r="0.5680884900925262" fill="#f59e0b" opacity="0.47412333547320806" />
  <circle cx="1081" cy="893" r="1.5019588938991133" fill="#fbbf24" opacity="0.4858732338859422" />
  <circle cx="524" cy="400" r="0.8174761186598473" fill="#fbbf24" opacity="0.7815708239106325" />
  <circle cx="1103" cy="516" r="0.7609846916800438" fill="#fbbf24" opacity="0.42502134627101096" />
  <circle cx="116" cy="997" r="1.4322438991626063" fill="#fbbf24" opacity="0.3690469851719146" />
  <circle cx="1176" cy="1071" r="1.7568286438377585" fill="#f59e0b" opacity="0.7362876035459054" />
  <circle cx="45" cy="536" r="0.5382686452958494" fill="#ffffff" opacity="0.434050944676568" />
  <circle cx="957" cy="921" r="0.9150240303449111" fill="#ffffff" opacity="0.35383286143725545" />
  <circle cx="50" cy="290" r="1.3379426055822576" fill="#f59e0b" opacity="0.5375420937040738" />
  <circle cx="1234" cy="77" r="1.2993087889049124" fill="#ffffff" opacity="0.7109517227882393" />
  <circle cx="1535" cy="308" r="0.6822784250388151" fill="#fbbf24" opacity="0.893084468541155" />
  <circle cx="330" cy="446" r="1.17664310997029" fill="#f59e0b" opacity="0.6479395544582172" />
  <circle cx="1025" cy="477" r="0.5838546285818743" fill="#f59e0b" opacity="0.4666434699594342" />
  <circle cx="871" cy="751" r="0.6231296807595289" fill="#fbbf24" opacity="0.6725302046763307" />
  <circle cx="946" cy="299" r="1.7195755039451586" fill="#fbbf24" opacity="0.4234861293805589" />
  <circle cx="1438" cy="917" r="1.0329633768915367" fill="#f59e0b" opacity="0.3991793096867839" />
  <circle cx="1694" cy="994" r="1.796506921436667" fill="#ffffff" opacity="0.7422904786256913" />
  <circle cx="1567" cy="95" r="1.227312932753842" fill="#fbbf24" opacity="0.8279904445046415" />
  <circle cx="21" cy="580" r="0.5752679702570846" fill="#fbbf24" opacity="0.6166277184882307" />
  <circle cx="1244" cy="235" r="0.6991483585191407" fill="#f59e0b" opacity="0.3958910579623131" />
  <circle cx="675" cy="607" r="0.7827644126839046" fill="#ffffff" opacity="0.54979242680178" />
  <circle cx="187" cy="935" r="1.0743726339139008" fill="#ffffff" opacity="0.5804702929018468" />
  <circle cx="915" cy="1076" r="1.6389125309041246" fill="#ffffff" opacity="0.7750862605300846" />
  <circle cx="36" cy="110" r="1.4790761824954146" fill="#ffffff" opacity="0.5136448134332352" />
  <circle cx="1048" cy="15" r="1.7310016667057202" fill="#f59e0b" opacity="0.4946420901706857" />
  <circle cx="980" cy="658" r="1.440292630642767" fill="#fbbf24" opacity="0.8893353559475934" />
  <circle cx="1438" cy="11" r="1.1817420803750585" fill="#fbbf24" opacity="0.8270453507967539" />
  <circle cx="668" cy="440" r="0.5784183511894012" fill="#ffffff" opacity="0.8921350074289935" />
  <circle cx="1325" cy="622" r="0.593066783015715" fill="#ffffff" opacity="0.763224989209014" />
  <circle cx="1295" cy="505" r="0.8502852116956515" fill="#f59e0b" opacity="0.6791103074361096" />
  <circle cx="882" cy="926" r="0.7212908101810231" fill="#fbbf24" opacity="0.5950552548642432" />
  <circle cx="1449" cy="653" r="1.2766020059788894" fill="#fbbf24" opacity="0.667428697541465" />
  <circle cx="1294" cy="287" r="0.7897183189643724" fill="#ffffff" opacity="0.7953192331420381" />
  <circle cx="919" cy="563" r="1.3438624921545197" fill="#f59e0b" opacity="0.5661579214806178" />
  <circle cx="1564" cy="512" r="0.5338960821964058" fill="#f59e0b" opacity="0.42021760249134" />
  <circle cx="1068" cy="585" r="0.6832051880786673" fill="#fbbf24" opacity="0.7956849072254026" />
  <circle cx="1021" cy="875" r="1.2593355318101644" fill="#ffffff" opacity="0.826327975516576" />
  <circle cx="1708" cy="843" r="1.7952712191900242" fill="#f59e0b" opacity="0.5530038209132525" />
  <circle cx="1031" cy="1043" r="1.3597775563128889" fill="#ffffff" opacity="0.7801629131891927" />
  <circle cx="1333" cy="268" r="0.8043001130279652" fill="#f59e0b" opacity="0.5755805898857549" />
  <circle cx="1712" cy="408" r="1.6748104299297608" fill="#fbbf24" opacity="0.6006713349102695" />
  <circle cx="806" cy="200" r="1.3694018971979922" fill="#ffffff" opacity="0.5914062731143832" />
  <circle cx="398" cy="678" r="1.7371240202412261" fill="#ffffff" opacity="0.36170978108051177" />
  <circle cx="1219" cy="187" r="0.8121234707937516" fill="#f59e0b" opacity="0.376948633342555" />
  <circle cx="1811" cy="912" r="1.332045089148095" fill="#ffffff" opacity="0.40113330254325374" />
  <circle cx="650" cy="975" r="1.1552706669772537" fill="#fbbf24" opacity="0.43429538539249257" />
  <circle cx="1009" cy="902" r="1.2037339642470841" fill="#ffffff" opacity="0.3708753474572507" />
  <circle cx="298" cy="892" r="1.3530333277867685" fill="#fbbf24" opacity="0.6534549957721468" />
  <circle cx="612" cy="436" r="0.6947072394876112" fill="#fbbf24" opacity="0.38639898880241036" />
  <circle cx="110" cy="110" r="1.3123430176942161" fill="#fbbf24" opacity="0.48798651552817585" />
  <circle cx="1139" cy="1049" r="1.1672789841045246" fill="#f59e0b" opacity="0.7649557938218565" />
  <circle cx="919" cy="961" r="1.470605954863878" fill="#ffffff" opacity="0.7126631759109495" />
  <circle cx="917" cy="330" r="1.1849130668302612" fill="#ffffff" opacity="0.4162822343000499" />
  <circle cx="917" cy="224" r="0.9096542194512731" fill="#fbbf24" opacity="0.6204933359522549" />
  <circle cx="802" cy="376" r="1.4702421822221232" fill="#fbbf24" opacity="0.5500776723723192" />
  <circle cx="1632" cy="334" r="1.5344997415244046" fill="#f59e0b" opacity="0.6350509698417459" />
  <circle cx="905" cy="285" r="1.787573951942198" fill="#ffffff" opacity="0.8485109070221586" />
  <circle cx="429" cy="506" r="0.7974412987141253" fill="#fbbf24" opacity="0.8055649083170993" />
  <circle cx="1094" cy="446" r="1.6300373404805601" fill="#f59e0b" opacity="0.3474606844010359" />
  <circle cx="1172" cy="580" r="0.9168184051576131" fill="#ffffff" opacity="0.5135552819249148" />
  <circle cx="322" cy="932" r="1.1486015876088163" fill="#ffffff" opacity="0.5132285239005232" />
  <circle cx="899" cy="964" r="1.5390086862005015" fill="#fbbf24" opacity="0.7650807790806478" />
  <circle cx="1439" cy="762" r="1.3446487523711168" fill="#fbbf24" opacity="0.6210292857744315" />
  <circle cx="305" cy="812" r="1.5858031261333703" fill="#ffffff" opacity="0.5480265288884265" />
  <circle cx="626" cy="298" r="0.8651958493062766" fill="#ffffff" opacity="0.3446206552204231" />
  <circle cx="1417" cy="674" r="0.6494674447569866" fill="#fbbf24" opacity="0.6901904544336099" />
  <circle cx="1279" cy="460" r="1.0063792356847228" fill="#ffffff" opacity="0.576212493746844" />
  <circle cx="199" cy="651" r="0.9709264865242022" fill="#fbbf24" opacity="0.6959407167071219" />
  <circle cx="563" cy="423" r="1.2366087652278148" fill="#ffffff" opacity="0.8747093619514847" />
  <circle cx="1027" cy="903" r="1.0279375126159056" fill="#f59e0b" opacity="0.6122413035329326" />
  <circle cx="802" cy="582" r="0.9904652410822272" fill="#fbbf24" opacity="0.42972599126138306" />
  <circle cx="644" cy="126" r="1.1798564464377859" fill="#ffffff" opacity="0.5539761205924" />
  <circle cx="446" cy="973" r="1.0408324285112345" fill="#f59e0b" opacity="0.4833022197695407" />
  <circle cx="244" cy="342" r="0.6840436944739451" fill="#f59e0b" opacity="0.7942946103037589" />
  <circle cx="376" cy="711" r="0.5958188752952507" fill="#f59e0b" opacity="0.882786500332108" />
  <circle cx="441" cy="817" r="0.7707592582535026" fill="#ffffff" opacity="0.5632585413122645" />
  <circle cx="529" cy="886" r="1.5187358256809975" fill="#ffffff" opacity="0.7029940113294795" />
  <circle cx="831" cy="718" r="0.8570461514068093" fill="#ffffff" opacity="0.31571117569396784" />
  <circle cx="259" cy="413" r="1.4705361396813865" fill="#f59e0b" opacity="0.8295933020738322" />
  <circle cx="900" cy="699" r="0.5747408516455921" fill="#fbbf24" opacity="0.5203141790072585" />
  <circle cx="1127" cy="664" r="1.7496389860789758" fill="#fbbf24" opacity="0.358878890865543" />
  <circle cx="1590" cy="150" r="1.2037436032326443" fill="#ffffff" opacity="0.4622601351874668" />
  <circle cx="1325" cy="660" r="1.4268236581276001" fill="#ffffff" opacity="0.5231060879598356" />
  <circle cx="1067" cy="388" r="0.9977154115298108" fill="#fbbf24" opacity="0.47076793169600883" />
  <circle cx="448" cy="839" r="1.071263412593693" fill="#ffffff" opacity="0.5441152398641763" />
  <circle cx="747" cy="539" r="1.1893054218838697" fill="#fbbf24" opacity="0.5419250721061043" />
  <circle cx="418" cy="821" r="0.9683460054624418" fill="#fbbf24" opacity="0.4056436284239085" />
  <circle cx="320" cy="116" r="0.8745903960422471" fill="#fbbf24" opacity="0.3313962422438683" />
  <circle cx="1351" cy="193" r="0.6446148756606005" fill="#f59e0b" opacity="0.4290383350334619" />
  <circle cx="1316" cy="60" r="1.621102206454897" fill="#fbbf24" opacity="0.31949561621238814" />
  <circle cx="580" cy="231" r="1.6953048188637565" fill="#ffffff" opacity="0.5976385851360252" />
  <circle cx="1190" cy="52" r="0.7007811201366407" fill="#ffffff" opacity="0.3018544877988226" />
  <circle cx="1393" cy="607" r="1.5643248292356913" fill="#fbbf24" opacity="0.3424288053277701" />
  <circle cx="1674" cy="270" r="1.1792338894643983" fill="#f59e0b" opacity="0.848869711494904" />
  <circle cx="712" cy="487" r="0.5824347421251094" fill="#f59e0b" opacity="0.5618568241611606" />
  <circle cx="1822" cy="671" r="0.5529970720889942" fill="#fbbf24" opacity="0.805113997544894" />
  <circle cx="1909" cy="699" r="0.6164758939656629" fill="#fbbf24" opacity="0.3774492939958369" />
  <circle cx="1469" cy="506" r="1.1343288304632102" fill="#ffffff" opacity="0.8937327074149917" />
  <circle cx="270" cy="410" r="1.436720677275129" fill="#f59e0b" opacity="0.775624742430792" />
  <circle cx="806" cy="294" r="1.364847508943158" fill="#fbbf24" opacity="0.32233826581230907" />
  <circle cx="745" cy="484" r="1.6654091846510632" fill="#fbbf24" opacity="0.6106096654733112" />
  <circle cx="89" cy="1036" r="0.9000909020913784" fill="#fbbf24" opacity="0.7435432766669254" />
  <circle cx="1833" cy="326" r="0.9356904503137417" fill="#fbbf24" opacity="0.710754573912624" />
  <circle cx="23" cy="572" r="1.4067983930269916" fill="#f59e0b" opacity="0.6932720775745707" />
  <circle cx="1097" cy="674" r="0.8057349285437576" fill="#f59e0b" opacity="0.31933690835212336" />
  <circle cx="1736" cy="813" r="1.3912109968648245" fill="#fbbf24" opacity="0.3397707100231878" />
  <circle cx="156" cy="1052" r="1.6949489781461673" fill="#f59e0b" opacity="0.7042883023570015" />
  <circle cx="664" cy="960" r="1.4150738024640677" fill="#f59e0b" opacity="0.6598063396162386" />
  <circle cx="1879" cy="119" r="0.818255641710843" fill="#fbbf24" opacity="0.7411765904902787" />
  <circle cx="64" cy="780" r="1.0832248592410192" fill="#f59e0b" opacity="0.3160152536677362" />
  <circle cx="1832" cy="867" r="1.181437491817795" fill="#fbbf24" opacity="0.6229109756849078" />
  <circle cx="521" cy="563" r="1.6286040690081682" fill="#ffffff" opacity="0.7697112959032649" />
  <circle cx="460" cy="108" r="0.7021728431168874" fill="#f59e0b" opacity="0.6510075333894907" />
  <circle cx="208" cy="321" r="0.664343909759124" fill="#fbbf24" opacity="0.5625864238025728" />
  <circle cx="1191" cy="518" r="1.6043424964551718" fill="#fbbf24" opacity="0.31708229592438214" />
  <circle cx="297" cy="540" r="0.9392652036266301" fill="#fbbf24" opacity="0.394424868989506" />
  <circle cx="533" cy="337" r="0.5610853695256388" fill="#ffffff" opacity="0.4608550824593232" />
  <circle cx="488" cy="66" r="1.004070059244234" fill="#f59e0b" opacity="0.5675214491094575" />
  <circle cx="1136" cy="316" r="1.5884838960697913" fill="#fbbf24" opacity="0.6251137902046661" />
  <circle cx="557" cy="40" r="1.3036390398963016" fill="#fbbf24" opacity="0.7677455060381614" />
  <circle cx="207" cy="679" r="1.6725330161307286" fill="#ffffff" opacity="0.8968703478814524" />
  <circle cx="473" cy="387" r="0.6793947291475759" fill="#ffffff" opacity="0.7654157367401639" />
  <circle cx="181" cy="57" r="0.909421911107287" fill="#f59e0b" opacity="0.6936394412336735" />
  <circle cx="44" cy="759" r="1.4725292583073677" fill="#ffffff" opacity="0.7732210115590104" />
  <circle cx="1530" cy="441" r="1.6048165894225757" fill="#ffffff" opacity="0.3418868978414703" />
  <circle cx="1015" cy="194" r="1.2728778824625404" fill="#fbbf24" opacity="0.6938938677902038" />
  <circle cx="1094" cy="144" r="1.5588646659133558" fill="#f59e0b" opacity="0.4210556077568667" />
  <circle cx="289" cy="189" r="1.7749115108766553" fill="#fbbf24" opacity="0.4049189444403372" />
  <circle cx="389" cy="535" r="0.7863486617329856" fill="#ffffff" opacity="0.647922403721235" />
  <circle cx="1861" cy="256" r="0.7011440239143456" fill="#f59e0b" opacity="0.4517720942368124" />
  <circle cx="165" cy="587" r="0.8945103844173816" fill="#fbbf24" opacity="0.5838813759866317" />
  <circle cx="1607" cy="273" r="1.2184381938327893" fill="#ffffff" opacity="0.4068917195863798" />
  <circle cx="1650" cy="550" r="0.7045963777310726" fill="#ffffff" opacity="0.4802545617979687" />
  <circle cx="1222" cy="903" r="1.5972389916744814" fill="#fbbf24" opacity="0.5844847789966757" />
  <circle cx="693" cy="538" r="1.5656261950349426" fill="#ffffff" opacity="0.812560038740817" />
  <circle cx="1499" cy="512" r="0.7140901619193301" fill="#fbbf24" opacity="0.7435493034761471" />
  <circle cx="1423" cy="738" r="1.7015828714883097" fill="#fbbf24" opacity="0.6838699764625855" />
  <circle cx="1008" cy="696" r="1.4903253604516968" fill="#fbbf24" opacity="0.7334082229918484" />
  <circle cx="1557" cy="728" r="1.1751435482113186" fill="#ffffff" opacity="0.6687026958548308" />
  <circle cx="282" cy="486" r="1.2336699983893178" fill="#fbbf24" opacity="0.48406797527687323" />
  <circle cx="1859" cy="868" r="1.0524248145581505" fill="#fbbf24" opacity="0.41625930445184656" />
  <circle cx="1380" cy="262" r="1.0252324803261068" fill="#f59e0b" opacity="0.6177924001378731" />
  <circle cx="57" cy="722" r="1.6664341430120397" fill="#fbbf24" opacity="0.3728351970859257" />
  <circle cx="1341" cy="745" r="0.7014477754734565" fill="#fbbf24" opacity="0.8876158605137383" />
  <circle cx="1913" cy="353" r="1.5609067513410504" fill="#ffffff" opacity="0.6446227068969348" />
  <circle cx="285" cy="1062" r="1.552772674014053" fill="#f59e0b" opacity="0.6118741064639146" />
  <circle cx="548" cy="62" r="0.7732620095427061" fill="#ffffff" opacity="0.6788463112884244" />
  <circle cx="1895" cy="281" r="1.1771198101047333" fill="#f59e0b" opacity="0.5354495513211595" />
  <circle cx="611" cy="478" r="0.7111928409387281" fill="#ffffff" opacity="0.3857368451799145" />
  <circle cx="25" cy="260" r="0.5606789906783161" fill="#ffffff" opacity="0.400747554145945" />
  <circle cx="1377" cy="735" r="0.6868891525345238" fill="#f59e0b" opacity="0.7261633768279296" />
  <circle cx="649" cy="790" r="1.3282874855909488" fill="#f59e0b" opacity="0.76304787789669" />
  <circle cx="1354" cy="509" r="1.4643301092464158" fill="#fbbf24" opacity="0.8234570991439094" />
  <circle cx="644" cy="569" r="0.7466277661813654" fill="#ffffff" opacity="0.4436592487432175" />
  <circle cx="1246" cy="949" r="1.1913916317883997" fill="#ffffff" opacity="0.8801334116606563" />
  <circle cx="1873" cy="443" r="1.5301655549381028" fill="#ffffff" opacity="0.5915158354754841" />
  <circle cx="309" cy="298" r="1.2705453143660614" fill="#f59e0b" opacity="0.4219394019179821" />
  <circle cx="1549" cy="610" r="1.042631159967556" fill="#f59e0b" opacity="0.8983458557537878" />
  <circle cx="119" cy="936" r="0.7802373134824879" fill="#fbbf24" opacity="0.6810151157530785" />
  <circle cx="995" cy="645" r="0.6496981110049669" fill="#fbbf24" opacity="0.6922339937293742" />
  <circle cx="1801" cy="22" r="0.9685228792155631" fill="#ffffff" opacity="0.44675244047291707" />
  <circle cx="864" cy="812" r="1.5691463834034995" fill="#f59e0b" opacity="0.5097476657920461" />
  <circle cx="1792" cy="272" r="1.047870894269482" fill="#f59e0b" opacity="0.8104566317838249" />
  <circle cx="1842" cy="874" r="1.0878087493403874" fill="#f59e0b" opacity="0.3568129002125572" />
  <circle cx="362" cy="438" r="0.777505097398776" fill="#fbbf24" opacity="0.33298852405777657" />
  <circle cx="938" cy="468" r="1.1391372377003144" fill="#ffffff" opacity="0.32978026201005356" />
  <circle cx="1197" cy="585" r="1.6193002406093178" fill="#ffffff" opacity="0.7657333645611729" />
  <circle cx="191" cy="441" r="0.7293701478209886" fill="#fbbf24" opacity="0.753519849788079" />
  <circle cx="364" cy="449" r="1.4613348614785475" fill="#ffffff" opacity="0.723048126606563" />
  <circle cx="654" cy="438" r="1.4639196283337013" fill="#f59e0b" opacity="0.5310019295866373" />
  <circle cx="1876" cy="190" r="1.3657593964012913" fill="#fbbf24" opacity="0.36270048542611394" />
  <circle cx="1699" cy="1032" r="1.3135611014730988" fill="#f59e0b" opacity="0.6236858930159186" />
  <circle cx="1322" cy="1027" r="0.695394219275908" fill="#ffffff" opacity="0.4572515055736095" />
  <circle cx="720" cy="941" r="0.9496093159728453" fill="#ffffff" opacity="0.4056728548784443" />
  <circle cx="623" cy="674" r="0.6699072350071296" fill="#fbbf24" opacity="0.413201099328107" />
  <circle cx="347" cy="833" r="1.581262058729925" fill="#fbbf24" opacity="0.5161916041684502" />
  <circle cx="1084" cy="990" r="1.6107776891202377" fill="#ffffff" opacity="0.8540155260858879" />
  <circle cx="230" cy="98" r="1.1483326224703831" fill="#fbbf24" opacity="0.875208549001748" />
  <circle cx="1799" cy="708" r="0.9971649187614953" fill="#ffffff" opacity="0.6338669396058818" />
  <circle cx="1043" cy="164" r="1.2747527425754257" fill="#fbbf24" opacity="0.549760475252269" />
  <circle cx="1445" cy="693" r="1.194677936124553" fill="#ffffff" opacity="0.794625281559874" />
  <circle cx="1334" cy="821" r="0.7909509864251679" fill="#f59e0b" opacity="0.40304471782542484" />
  <circle cx="1768" cy="523" r="1.0417390739287076" fill="#f59e0b" opacity="0.8260668365612227" />
  <circle cx="283" cy="514" r="1.561307176263116" fill="#f59e0b" opacity="0.33020114926242355" />
  <circle cx="555" cy="743" r="1.143658094749401" fill="#ffffff" opacity="0.7142470243887817" />
  <circle cx="1830" cy="849" r="0.8731720126706075" fill="#f59e0b" opacity="0.8959892763604957" />
  <circle cx="1846" cy="154" r="1.5813655345780488" fill="#f59e0b" opacity="0.6393159288037573" />
  <circle cx="1859" cy="285" r="0.6050136714227422" fill="#f59e0b" opacity="0.30659277272920143" />
  <circle cx="1207" cy="764" r="1.7447401144547348" fill="#ffffff" opacity="0.6462742311809428" />
  <circle cx="1749" cy="664" r="1.596756336230994" fill="#f59e0b" opacity="0.8956940613883146" />
  <circle cx="945" cy="354" r="0.6687912555269824" fill="#ffffff" opacity="0.44530431900619805" />
  <circle cx="720" cy="274" r="0.6756147878660803" fill="#fbbf24" opacity="0.7811489916248392" />
  <circle cx="1874" cy="846" r="1.2164553541089833" fill="#fbbf24" opacity="0.3798862496099453" />
  <circle cx="491" cy="1048" r="1.422876139673633" fill="#ffffff" opacity="0.7418471219747893" />
  <circle cx="1300" cy="654" r="1.586267479318261" fill="#ffffff" opacity="0.4308399002604158" />
  <circle cx="1527" cy="327" r="1.3753898623642948" fill="#f59e0b" opacity="0.3984008144084864" />
  <circle cx="1446" cy="500" r="0.6968643838794834" fill="#ffffff" opacity="0.8151791196019211" />
  <circle cx="147" cy="653" r="0.672350262125017" fill="#ffffff" opacity="0.5528419624254578" />
  <circle cx="858" cy="814" r="0.5697246525885983" fill="#ffffff" opacity="0.36825595525523314" />
  <circle cx="655" cy="457" r="1.0048806099415766" fill="#ffffff" opacity="0.7893691404732777" />
  <circle cx="1360" cy="72" r="0.6364145665807251" fill="#ffffff" opacity="0.6397267598688317" />
  <circle cx="1086" cy="406" r="1.3327385294718888" fill="#f59e0b" opacity="0.3327945675321467" />
  <circle cx="405" cy="295" r="0.7722804290656085" fill="#fbbf24" opacity="0.5793426419465788" />
  <circle cx="1040" cy="442" r="0.5903413685576249" fill="#f59e0b" opacity="0.6058836793356916" />
  <circle cx="267" cy="684" r="1.386056732767557" fill="#fbbf24" opacity="0.42331947859553354" />
  <circle cx="879" cy="195" r="1.7642012926628194" fill="#fbbf24" opacity="0.6473535133051422" />
  <circle cx="952" cy="894" r="1.1828783019066733" fill="#fbbf24" opacity="0.6014332440198571" />
  <circle cx="182" cy="1076" r="0.8198022623072192" fill="#fbbf24" opacity="0.3537243305547249" />
  <circle cx="1722" cy="139" r="0.8863413206778121" fill="#f59e0b" opacity="0.5232238611362351" />
  <circle cx="1746" cy="123" r="0.7589200036353781" fill="#fbbf24" opacity="0.7068841536134547" />
  <circle cx="487" cy="809" r="0.9969896966931007" fill="#f59e0b" opacity="0.7941703317818789" />
  <circle cx="70" cy="23" r="1.245301799952109" fill="#ffffff" opacity="0.3175670449969017" />
  <circle cx="797" cy="710" r="0.9509649697851474" fill="#fbbf24" opacity="0.4189489062805274" />
  <circle cx="1499" cy="505" r="1.6567800106893564" fill="#f59e0b" opacity="0.3289864103833134" />
  <circle cx="1709" cy="1027" r="0.7773027865208968" fill="#fbbf24" opacity="0.8205527296392103" />
  <circle cx="1623" cy="30" r="0.7649973314321845" fill="#fbbf24" opacity="0.6365779215159664" />
  <circle cx="1345" cy="312" r="0.7104517419695218" fill="#fbbf24" opacity="0.6041447627052596" />
  <circle cx="258" cy="417" r="1.145898767560651" fill="#fbbf24" opacity="0.7833781974336131" />
  <circle cx="1797" cy="342" r="0.6939780624783897" fill="#f59e0b" opacity="0.76624889069814" />
  <circle cx="1354" cy="966" r="0.7756239946752262" fill="#fbbf24" opacity="0.31922619714181144" />
  <circle cx="1766" cy="276" r="0.6273191040245798" fill="#fbbf24" opacity="0.885396016479123" />
  <circle cx="745" cy="847" r="0.8024403147873356" fill="#ffffff" opacity="0.6407672964107991" />
  <circle cx="1428" cy="150" r="0.7382448718588484" fill="#f59e0b" opacity="0.4840311273395753" />
  <circle cx="1911" cy="118" r="1.2966971864574242" fill="#f59e0b" opacity="0.5539662939500132" />
  <circle cx="1774" cy="729" r="1.558534368296466" fill="#fbbf24" opacity="0.4516762274714415" />
  <circle cx="440" cy="572" r="0.6728426782578351" fill="#fbbf24" opacity="0.37157123284525045" />
  <circle cx="190" cy="927" r="1.3060987842112408" fill="#fbbf24" opacity="0.846951263279458" />
  <circle cx="1009" cy="1009" r="0.7329945817227591" fill="#f59e0b" opacity="0.8262213596266261" />
  <circle cx="1148" cy="381" r="0.7953869318240678" fill="#ffffff" opacity="0.7924095435203684" />
  <circle cx="1449" cy="821" r="1.5904406935819073" fill="#ffffff" opacity="0.34056269828742963" />
  <circle cx="1619" cy="1037" r="0.7056566119505108" fill="#fbbf24" opacity="0.30099114615872885" />
  <circle cx="185" cy="1045" r="0.8021309337304106" fill="#fbbf24" opacity="0.6032349487674847" />
  <circle cx="212" cy="706" r="1.109602074576531" fill="#f59e0b" opacity="0.5378789943124469" />
  <circle cx="110" cy="454" r="1.5476826430531443" fill="#fbbf24" opacity="0.6946842834962091" />
  <circle cx="645" cy="987" r="0.5653603546456156" fill="#f59e0b" opacity="0.8681951872499676" />
  <circle cx="942" cy="436" r="1.749934489686428" fill="#f59e0b" opacity="0.8378968681134646" />
  <circle cx="320" cy="925" r="1.687935446383435" fill="#f59e0b" opacity="0.47878343140335117" />
  <circle cx="675" cy="985" r="1.1424565628581158" fill="#f59e0b" opacity="0.7933662853551946" />
  <circle cx="1312" cy="935" r="1.019753420409983" fill="#ffffff" opacity="0.4018752494465014" />
  <circle cx="675" cy="326" r="1.3431137132695645" fill="#f59e0b" opacity="0.5083210329273267" />
  <circle cx="632" cy="371" r="0.7736534969324926" fill="#fbbf24" opacity="0.7400315790995846" />
  <circle cx="1278" cy="800" r="1.2837782971788418" fill="#ffffff" opacity="0.7265413471807343" />
  <circle cx="1728" cy="109" r="0.5812517003572917" fill="#f59e0b" opacity="0.7310083195356376" />
  <circle cx="1835" cy="966" r="1.6579603222941892" fill="#ffffff" opacity="0.37284850499197153" />
  <circle cx="931" cy="12" r="1.5032799256291514" fill="#fbbf24" opacity="0.3399587547486175" />
  <circle cx="829" cy="29" r="1.688670865226985" fill="#fbbf24" opacity="0.7778341074552644" />
  <circle cx="1398" cy="413" r="1.469203188748508" fill="#f59e0b" opacity="0.5881438767559064" />
  <circle cx="1278" cy="647" r="1.1637881600667495" fill="#ffffff" opacity="0.3602649875208017" />
  <circle cx="661" cy="934" r="1.5036354490859212" fill="#fbbf24" opacity="0.8261801951187553" />
  <circle cx="1263" cy="549" r="0.5945213288033926" fill="#f59e0b" opacity="0.41176247473313987" />
  <circle cx="1460" cy="895" r="1.4882701346222813" fill="#f59e0b" opacity="0.8332356480094572" />
  <circle cx="1470" cy="736" r="1.0973293835621587" fill="#ffffff" opacity="0.39780645757435085" />
  <circle cx="147" cy="1069" r="1.7426075531553722" fill="#ffffff" opacity="0.607520555431718" />
  <circle cx="1640" cy="98" r="0.698214642045722" fill="#ffffff" opacity="0.5805004029289118" />
  <circle cx="69" cy="510" r="1.3052281247343278" fill="#f59e0b" opacity="0.7610378198427405" />
  <circle cx="1702" cy="464" r="1.0713311984493608" fill="#f59e0b" opacity="0.4274747246446946" />
  <circle cx="490" cy="450" r="0.6317952681787637" fill="#fbbf24" opacity="0.49742105506273293" />
  <circle cx="1631" cy="619" r="0.8136723919058055" fill="#f59e0b" opacity="0.6862464557857113" />
  <circle cx="500" cy="596" r="1.0010206335866834" fill="#fbbf24" opacity="0.4590448549236341" />
  <circle cx="536" cy="265" r="1.390657252937662" fill="#f59e0b" opacity="0.3500703260652501" />
  <circle cx="504" cy="662" r="1.6331963751916632" fill="#fbbf24" opacity="0.8440324711348086" />
  <circle cx="1815" cy="565" r="1.7554776681848725" fill="#ffffff" opacity="0.818493151568531" />
  <circle cx="1908" cy="233" r="1.5738673034309083" fill="#f59e0b" opacity="0.8751147427970782" />
  <circle cx="1913" cy="226" r="1.3913922198861006" fill="#fbbf24" opacity="0.3784040310542077" />
  <circle cx="934" cy="714" r="1.3289758741229762" fill="#fbbf24" opacity="0.8510139785426445" />
  <circle cx="1813" cy="722" r="1.2802216511355096" fill="#ffffff" opacity="0.48338830015073564" />
  <circle cx="1233" cy="47" r="1.3895807752036324" fill="#fbbf24" opacity="0.835646001390089" />
  <circle cx="1105" cy="765" r="1.5738938148855801" fill="#ffffff" opacity="0.4993943761565365" />
  <circle cx="250" cy="52" r="1.5978271846965797" fill="#f59e0b" opacity="0.5358805182114197" />
  <circle cx="84" cy="1069" r="1.029270553920172" fill="#ffffff" opacity="0.6271498353138396" />
  <circle cx="1183" cy="186" r="0.6718421687167182" fill="#f59e0b" opacity="0.4905811713635958" />
  <circle cx="141" cy="623" r="1.2520505057456985" fill="#fbbf24" opacity="0.6301886971221895" />
  <circle cx="228" cy="133" r="1.0896101994710854" fill="#f59e0b" opacity="0.362139912550703" />
  <circle cx="108" cy="1060" r="0.6160851960005086" fill="#f59e0b" opacity="0.5738350239041338" />
  <circle cx="18" cy="904" r="0.5205339583762089" fill="#f59e0b" opacity="0.3706876895134307" />
  <circle cx="351" cy="326" r="1.431939915601145" fill="#f59e0b" opacity="0.3027496360009838" />
  <circle cx="842" cy="249" r="0.630234443737262" fill="#ffffff" opacity="0.5282104852274787" />
  <circle cx="653" cy="150" r="1.3628547760267016" fill="#f59e0b" opacity="0.3513242401495693" />
  <circle cx="1180" cy="613" r="1.4909557273416643" fill="#fbbf24" opacity="0.6558676193015114" />
  <circle cx="1510" cy="513" r="1.5079648041853446" fill="#fbbf24" opacity="0.3950586890154395" />
  <circle cx="1842" cy="426" r="1.7152062031076551" fill="#fbbf24" opacity="0.710273834101577" />
  <circle cx="1151" cy="166" r="1.7724775981604608" fill="#ffffff" opacity="0.3593238033563054" />
  <line x1="1085" y1="655" x2="1558" y2="788" stroke="#fbbf24" stroke-width="0.5" opacity="0.1" />
  <line x1="1017" y1="444" x2="1255" y2="657" stroke="#fbbf24" stroke-width="0.5" opacity="0.1" />
  <line x1="1143" y1="202" x2="1456" y2="406" stroke="#fbbf24" stroke-width="0.5" opacity="0.1" />
</svg>